<?xml version="1.0" encoding="UTF-8"?>
<svg width="600" height="400" viewBox="0 0 600 400" fill="none" xmlns="http://www.w3.org/2000/svg">
  <!-- Background -->
  <rect width="600" height="400" rx="20" fill="#F8FAFB"/>
  
  <!-- Header Bar -->
  <rect x="20" y="20" width="560" height="60" rx="10" fill="white"/>
  <circle cx="50" cy="50" r="15" fill="#4ECDC4"/>
  <rect x="80" y="40" width="100" height="20" rx="5" fill="#E0E6E9"/>
  <rect x="400" y="40" width="160" height="20" rx="5" fill="#E0E6E9"/>
  
  <!-- Main Content Area -->
  <rect x="20" y="100" width="360" height="280" rx="10" fill="white"/>
  <rect x="40" y="120" width="320" height="40" rx="5" fill="#E0E6E9"/>
  <rect x="40" y="180" width="320" height="180" rx="5" fill="#F0F3F5"/>
  
  <!-- Sidebar -->
  <rect x="400" y="100" width="180" height="280" rx="10" fill="white"/>
  <rect x="420" y="120" width="140" height="20" rx="5" fill="#4ECDC4" fill-opacity="0.2"/>
  <rect x="420" y="160" width="140" height="20" rx="5" fill="#E0E6E9"/>
  <rect x="420" y="200" width="140" height="20" rx="5" fill="#E0E6E9"/>
  <rect x="420" y="240" width="140" height="20" rx="5" fill="#E0E6E9"/>
  
  <!-- Decorative Elements -->
  <circle cx="440" cy="330" r="30" fill="#4ECDC4" fill-opacity="0.1"/>
  <circle cx="520" cy="350" r="20" fill="#FF6B6B" fill-opacity="0.1"/>
</svg> 